<svg width="18" height="18" viewBox="0 0 18 18" fill="none" xmlns="http://www.w3.org/2000/svg">
<g clip-path="url(#clip0)">
<path d="M17.7696 16.0486V3.48595C17.7941 2.44489 16.97 1.5811 15.929 1.55663C15.8994 1.55592 15.8698 1.55592 15.8402 1.55663H13.6039V0.438487C13.604 0.19631 13.4077 0 13.1655 0C12.9233 0 12.727 0.19631 12.727 0.438487V1.55663H5.27273V0.438487C5.27273 0.19631 5.07642 0 4.83424 0C4.59207 0 4.39576 0.19631 4.39576 0.438487V1.55663H2.15947C1.11845 1.53212 0.254657 2.35618 0.230149 3.39724C0.229436 3.42682 0.229436 3.45641 0.230149 3.48599V16.0486C0.205852 17.1017 1.03994 17.9752 2.09308 17.9995C2.11519 18 2.13735 18.0001 2.15951 17.9999H15.8403C16.8936 18.0123 17.7576 17.1684 17.77 16.115C17.7703 16.0929 17.7701 16.0707 17.7696 16.0486ZM2.06979 2.43361C2.09967 2.43226 2.12959 2.43226 2.15947 2.43361H4.39576V3.5298C4.39576 3.77198 4.59207 3.96829 4.83424 3.96829C5.07642 3.96829 5.27273 3.77198 5.27273 3.5298V2.43361H12.727V3.5298C12.727 3.77198 12.9233 3.96829 13.1655 3.96829C13.4077 3.96829 13.604 3.77198 13.604 3.5298V2.43361H15.8403C16.3967 2.40885 16.8679 2.83982 16.8927 3.39627C16.894 3.42615 16.894 3.45607 16.8927 3.48595V5.28375H1.10712V3.48595C1.08236 2.92954 1.51338 2.45836 2.06979 2.43361ZM15.9072 17.1222C15.8849 17.1232 15.8626 17.1234 15.8403 17.1229H2.15951C1.59055 17.1355 1.11908 16.6845 1.10645 16.1155C1.10595 16.0932 1.1062 16.0709 1.10712 16.0486V6.16072H16.8926V16.0486C16.917 16.6172 16.4758 17.0978 15.9072 17.1222Z" fill="white"/>
<path d="M4.46174 7.9585C3.50516 7.9585 2.72974 8.73396 2.72974 9.6905C2.72974 10.6471 3.5052 11.4225 4.46174 11.4225C5.41832 11.4225 6.19374 10.647 6.19374 9.6905C6.19374 8.73396 5.41832 7.9585 4.46174 7.9585ZM4.50618 10.5456C4.49136 10.5459 4.47655 10.5459 4.46174 10.5456C4.00176 10.5578 3.61896 10.1949 3.60671 9.73498C3.60633 9.72017 3.60633 9.70535 3.60671 9.69054C3.60671 9.21831 3.98951 8.83547 4.46174 8.83547C4.93396 8.83547 5.31681 9.21827 5.31681 9.69054C5.32906 10.1505 4.96615 10.5333 4.50618 10.5456Z" fill="white"/>
<path d="M8.9997 7.9585C8.04312 7.9585 7.2677 8.73396 7.2677 9.6905C7.2677 10.6471 8.04316 11.4225 8.9997 11.4225C9.95624 11.4225 10.7317 10.647 10.7317 9.6905C10.7317 8.73396 9.95628 7.9585 8.9997 7.9585ZM9.04414 10.5456C9.02933 10.5459 9.01451 10.5459 8.9997 10.5456C8.53973 10.5578 8.15693 10.1949 8.14463 9.73498C8.14425 9.72017 8.14425 9.70535 8.14463 9.69054C8.14488 9.21831 8.52789 8.83568 9.00012 8.83593C9.47201 8.83618 9.85448 9.21865 9.85473 9.69054C9.86702 10.1505 9.50407 10.5333 9.04414 10.5456Z" fill="white"/>
<path d="M13.5379 7.9585C12.5813 7.9585 11.8059 8.73396 11.8059 9.6905C11.8059 10.6471 12.5814 11.4225 13.5379 11.4225C14.4945 11.4225 15.2699 10.647 15.2699 9.6905C15.2699 8.73396 14.4944 7.9585 13.5379 7.9585ZM13.5824 10.5456C13.5675 10.5459 13.5527 10.5459 13.5379 10.5456C13.0779 10.5578 12.6951 10.1949 12.6829 9.73498C12.6825 9.72017 12.6825 9.70535 12.6829 9.69054C12.6829 9.21831 13.0657 8.83547 13.5379 8.83547C14.0101 8.83547 14.393 9.21827 14.393 9.69054C14.4052 10.1505 14.0423 10.5333 13.5824 10.5456Z" fill="white"/>
<path d="M4.50588 11.8391C4.49115 11.8389 4.47647 11.8389 4.46174 11.8391C3.50516 11.8391 2.72974 12.6146 2.72974 13.5711C2.72974 14.5277 3.5052 15.3031 4.46174 15.3031C5.41832 15.3031 6.19374 14.5277 6.19374 13.5711C6.20595 12.6268 5.45025 11.8514 4.50588 11.8391ZM5.31676 13.5712C5.31693 14.0313 4.94404 14.4044 4.48394 14.4046C4.47655 14.4046 4.46912 14.4045 4.46174 14.4043C3.98951 14.4041 3.60684 14.0212 3.60696 13.549C3.60713 13.0768 3.99006 12.6941 4.46228 12.6942C4.93451 12.6944 5.31718 13.0773 5.31706 13.5495C5.31706 13.5568 5.31697 13.564 5.31676 13.5712Z" fill="white"/>
<path d="M9.04397 11.8391C9.02924 11.8389 9.01455 11.8389 8.99982 11.8391C8.04324 11.8391 7.26782 12.6146 7.26782 13.5711C7.26782 14.5277 8.04329 15.3031 8.99982 15.3031C9.95636 15.3031 10.7318 14.5277 10.7318 13.5711C10.7441 12.6268 9.98838 11.8514 9.04397 11.8391ZM9.85489 13.5712C9.85506 14.0313 9.48216 14.4044 9.02207 14.4046C9.01464 14.4046 9.00725 14.4045 8.99987 14.4043C8.52764 14.4041 8.14497 14.0212 8.14509 13.549C8.14526 13.0768 8.52819 12.6941 9.00041 12.6942C9.47264 12.6944 9.85531 13.0773 9.85519 13.5495C9.85519 13.5568 9.8551 13.564 9.85489 13.5712Z" fill="white"/>
<path d="M13.5819 11.8391C13.5672 11.8389 13.5525 11.8389 13.5378 11.8391C12.5812 11.8391 11.8058 12.6146 11.8058 13.5711C11.8058 14.5277 12.5812 15.3031 13.5378 15.3031C14.4944 15.3031 15.2698 14.5277 15.2698 13.5711C15.282 12.6268 14.5263 11.8514 13.5819 11.8391ZM14.3929 13.5712C14.393 14.0313 14.0201 14.4044 13.56 14.4046C13.5526 14.4046 13.5452 14.4045 13.5378 14.4043C13.0656 14.4041 12.6829 14.0212 12.6831 13.549C12.6832 13.0768 13.0661 12.6941 13.5384 12.6942C14.0106 12.6944 14.3933 13.0773 14.3931 13.5495C14.3931 13.5568 14.3931 13.564 14.3929 13.5712Z" fill="white"/>
</g>
<defs>
<clipPath id="clip0">
<rect width="18" height="18" fill="white"/>
</clipPath>
</defs>
</svg>
