<svg width="16" height="16" viewBox="0 0 16 16" fill="none" xmlns="http://www.w3.org/2000/svg">
<g clip-path="url(#clip0)">
<path d="M3.86373 5.39278L3.86342 5.3929C3.72478 5.44889 3.6334 5.58327 3.6334 5.73335V9.46669C3.6334 9.6167 3.72475 9.75127 3.86364 9.80697L3.86373 9.80701L10.0334 12.2747V12.4C10.0334 13.0435 10.5566 13.5667 11.2001 13.5667C11.8435 13.5667 12.3667 13.0435 12.3667 12.4V2.8C12.3667 2.15649 11.8436 1.63335 11.2001 1.63335C10.5565 1.63335 10.0334 2.15652 10.0334 2.8V2.92511L3.86373 5.39278ZM10.5361 11.6861L10.499 11.7789L10.5361 11.6861L4.36671 9.21842V5.98158L10.5361 3.51391L10.5363 3.51382C10.6753 3.45786 10.7667 3.32344 10.7667 3.17334V2.8C10.7667 2.5611 10.9611 2.36666 11.2001 2.36666C11.439 2.36666 11.6334 2.56107 11.6334 2.8V12.4C11.6334 12.6389 11.439 12.8333 11.2001 12.8333C10.9611 12.8333 10.7667 12.6389 10.7667 12.4V12.0267C10.7667 11.8764 10.6754 11.7418 10.5361 11.6861Z" fill="white" stroke="white" stroke-width="0.2"/>
<path d="M4 5.36667H2.13334C0.901834 5.36667 -0.1 6.3685 -0.1 7.60001C-0.1 8.83152 0.901834 9.83336 2.13334 9.83336H4C4.20235 9.83336 4.36666 9.66947 4.36666 9.4667V5.73335C4.36666 5.53092 4.20242 5.36667 4 5.36667ZM3.63334 9.10001H2.13334C1.30617 9.10001 0.633344 8.42719 0.633344 7.60001C0.633344 6.77283 1.30617 6.10001 2.13334 6.10001H3.63334V9.10001Z" fill="white" stroke="white" stroke-width="0.2"/>
<path d="M13.7161 6.45211L13.716 6.45206L13.7157 8.74773L13.6843 8.65277L13.716 8.74764L13.7158 8.74768C13.866 8.69804 13.9667 8.55778 13.9667 8.39996V6.79996V6.79993C13.9667 6.64191 13.8658 6.50225 13.7161 6.45211ZM12.1165 9.28079L12.0843 9.18611L12.116 9.28098L12.1162 9.2809C12.1163 9.28086 12.1164 9.28083 12.1165 9.28079ZM13.2334 7.06407V8.13563L12.3667 8.42445V6.77525L13.2334 7.06407Z" fill="white" stroke="white" stroke-width="0.2"/>
<path d="M5.37929 12.7275L5.37964 12.7278C5.51957 12.8693 5.59565 13.0558 5.59439 13.2535M5.37929 12.7275L5.49439 13.2528M5.37929 12.7275L5.13113 12.479M5.37929 12.7275L5.13113 12.479M5.59439 13.2535L5.49439 13.2528M5.59439 13.2535C5.59439 13.2535 5.59439 13.2535 5.59439 13.2535L5.49439 13.2528M5.59439 13.2535C5.59315 13.4512 5.51499 13.6365 5.37459 13.7754L5.37441 13.7756C5.27581 13.8726 5.15194 13.9404 5.01634 13.9709L5.014 13.9715L5.014 13.9714L5.00601 13.973L5.00535 13.9732L3.00365 14.3596L2.98373 14.2616M5.49439 13.2528C5.49333 13.424 5.42586 13.584 5.30426 13.7043C5.21892 13.7883 5.11173 13.847 4.99439 13.8734L4.98639 13.875L2.98373 14.2616M2.98373 14.2616L3.00269 14.3598L3.00316 14.3597L2.98373 14.2616ZM5.13113 12.479L4.35573 9.37792L4.35571 9.37787L4.2587 9.40212C4.22911 9.28347 4.12242 9.2 4.00004 9.2H1.86667C1.78507 9.2 1.70826 9.23734 1.6576 9.30081C1.60695 9.36481 1.58826 9.44828 1.60695 9.52775L5.13113 12.479ZM4.85926 13.2535L4.8589 13.2538C4.85885 13.2539 4.85835 13.2544 4.85697 13.2549L3.20973 13.5732L2.32971 9.83331H3.71366L4.44458 12.7554C4.44459 12.7554 4.44459 12.7554 4.44459 12.7554C4.44459 12.7554 4.44459 12.7554 4.4446 12.7555C4.4607 12.8199 4.49405 12.8789 4.54102 12.9259L4.85996 13.2448C4.86067 13.2455 4.86075 13.2458 4.86086 13.2461L4.86088 13.2462C4.86109 13.2469 4.86124 13.2478 4.8613 13.2487C4.86124 13.2494 4.86109 13.2503 4.86082 13.2511C4.86061 13.2517 4.86035 13.2524 4.85926 13.2535Z" fill="white" stroke="white" stroke-width="0.2"/>
<path d="M16.1 7.33334V7.23334H16H14.4H14.3V7.33334V7.86668V7.96668H14.4H16H16.1V7.86668V7.33334Z" fill="white" stroke="white" stroke-width="0.2"/>
<path d="M15.6812 4.12046L15.6298 4.03472L15.544 4.08618L14.2109 4.88634L14.1251 4.9378L14.1766 5.02354L14.451 5.4808L14.5025 5.56654L14.5882 5.51508L15.9214 4.71492L16.0072 4.66346L15.9557 4.57772L15.6812 4.12046Z" fill="white" stroke="white" stroke-width="0.2"/>
<path d="M14.5905 9.68545L14.5048 9.634L14.4533 9.71975L14.1789 10.1771L14.1274 10.2628L14.2132 10.3143L15.5466 11.1143L15.6323 11.1658L15.6838 11.08L15.9582 10.6227L16.0096 10.5369L15.9239 10.4855L14.5905 9.68545Z" fill="white" stroke="white" stroke-width="0.2"/>
<path d="M10.7666 3.06665V2.96665H10.6666H10.1333H10.0333V3.06665V12.1333V12.2333H10.1333H10.6666H10.7666V12.1333V3.06665Z" fill="white" stroke="white" stroke-width="0.2"/>
<path d="M3.29997 6.53333V6.43333H3.19997H2.66663H2.56663V6.53333V7.59999V7.69999H2.66663H3.19997H3.29997V7.59999V6.53333Z" fill="white" stroke="white" stroke-width="0.2"/>
<path d="M2.23332 6.53333V6.43333H2.13332H1.59998H1.49998V6.53333V7.59999V7.69999H1.59998H2.13332H2.23332V7.59999V6.53333Z" fill="white" stroke="white" stroke-width="0.2"/>
</g>
<defs>
<clipPath id="clip0">
<rect width="16" height="16" fill="white"/>
</clipPath>
</defs>
</svg>
