<svg width="80" height="52" viewBox="0 0 80 52" fill="none" xmlns="http://www.w3.org/2000/svg">
<path d="M79.3518 24.4339H55.0164V0.12913C55.5287 -0.0214084 78.5635 -0.0536666 79.3518 0.10404V24.4339ZM70.8889 8.50552H63.465V15.993H70.8889V8.50552Z" fill="white"/>
<path d="M55.0485 27.5486H79.2657C79.4198 28.0719 79.4735 50.8893 79.323 51.9215H55.1058C54.9518 51.4197 54.898 28.6741 55.0485 27.5486ZM70.8708 43.5057C71.0141 42.4484 70.964 36.5308 70.8207 36.0326H63.4864C63.3466 37.0469 63.3932 42.9788 63.5473 43.5057H70.8708Z" fill="white"/>
<path d="M27.4922 24.4267V0.0574341H51.7595C51.9029 0.584319 51.953 11.8855 51.8169 12.9786H43.4686V8.60228C42.8881 8.42307 36.7828 8.39081 35.9444 8.54852V16.0253H51.8169V24.4267H27.4922Z" fill="white"/>
<path d="M15.894 36.0182H8.44144V51.8247C7.8825 52.0147 0.956649 52.0613 0 51.9V27.6454C0.480116 27.4948 23.4003 27.4482 24.339 27.6095V51.8462C23.841 52.0111 12.5153 52.0648 11.5085 51.9V43.5558H15.894V36.0182Z" fill="white"/>
<path d="M0 24.4303V0.050293H24.339V8.44102H8.46294V15.9679H15.9227C15.9836 14.5342 15.9227 13.1005 15.9585 11.6668C16.521 11.4984 23.3752 11.4554 24.2709 11.5987C24.4214 12.1364 24.4465 23.6669 24.2924 24.4196L0 24.4303Z" fill="white"/>
<path d="M39.7673 43.5487H43.2822C43.4578 42.9717 43.4972 36.9143 43.3467 36.0218H35.9765C35.9475 36.2059 35.9284 36.3913 35.9192 36.5774C35.9192 38.5631 35.9192 40.5452 35.9192 42.5272C35.9256 42.8841 36.0324 43.2319 36.2274 43.5308C37.6964 46.0733 39.1618 48.6181 40.6236 51.1653C40.7526 51.3839 40.8709 51.6097 40.9819 51.8463C40.3979 52.0004 28.5562 52.0434 27.5638 51.9144C27.4276 51.3947 27.3918 28.4519 27.5315 27.5415H51.8204V51.8857C51.6455 51.9209 51.4683 51.9437 51.2901 51.9538C49.212 51.9538 47.1339 51.9538 45.0558 51.9538C44.9044 51.9714 44.7513 51.9424 44.6168 51.8707C44.4824 51.799 44.373 51.6879 44.3033 51.5524C42.8487 49.0004 41.3761 46.4592 39.9106 43.9143C39.8555 43.7955 39.8076 43.6734 39.7673 43.5487Z" fill="white"/>
</svg>
